<?xml version="1.0" encoding="utf-8"?>
<!-- Generator: Adobe Illustrator 19.1.0, SVG Export Plug-In . SVG Version: 6.00 Build 0)  -->
<svg version="1.1" id="Layer_1" xmlns="http://www.w3.org/2000/svg" xmlns:xlink="http://www.w3.org/1999/xlink" x="0px" y="0px"
	 viewBox="0 0 64 64" enable-background="new 0 0 64 64" xml:space="preserve">
<g id="Marketplace">
	<path d="M63.8651199,16.83885L55.2782173,2.01175c-0.669899-1.1552999-1.8330002-1.8457-3.1113968-1.8457H11.7743196
		c-1.2841997,0-2.4970999,0.7236-3.1659994,1.8896L0.1327249,16.8427505
		c-0.1778047,0.3095989-0.1768047,0.6894989,0.0018953,0.9981003c0.1787,0.3085995,0.5088,0.4989986,0.8652999,0.4989986H5.39152
		v31.4707012c0,0.9520988,0.4052048,1.8798981,1.1122999,2.5477982c0.7011003,0.6612015,1.6289048,1.0254021,2.6131997,1.0254021
		h10.7520008h24.2617054H54.842617c0.9932022,0,1.9317017-0.3680992,2.642601-1.0381012
		c0.7139015-0.6748009,1.1231003-1.6123009,1.1231003-2.5732002v-31.4326h4.3916016
		c0.357399,0,0.687397-0.1903992,0.8661995-0.5009995C64.0448151,17.5292492,64.0448151,17.1484509,63.8651199,16.83885z
		 M16.767725,16.3398495L20.6921196,2.16605h10.3078003v14.1737995H16.767725z M32.9999199,2.16605h10.3064995l3.925499,14.1737995
		H32.9999199V2.16605z M10.3426199,3.05075c0.3184004-0.5537,0.8535004-0.8847001,1.4316998-0.8847001h6.8424044
		L14.69242,16.3398495H6.39152H2.7254202L10.3426199,3.05075z M20.8690205,51.3837509V31.8183498h22.2617054v19.5654011H20.8690205z
		 M56.6083183,49.7724495c0,0.419899-0.1767998,0.8174019-0.4952011,1.1190987
		c-0.3319969,0.3125-0.7958984,0.4922028-1.2705002,0.4922028h-9.7118912V30.8183498c0-0.5527-0.4473076-1-1-1H19.8690205
		c-0.5527,0-1,0.4473-1,1v20.5654011H9.1170197c-0.4647999,0-0.9179001-0.1748009-1.2411995-0.4794998
		c-0.3125-0.2959023-0.4843001-0.6836014-0.4843001-1.0937004V18.3398495h49.2167969V49.7724495z M57.6083183,16.3398495h-8.3007011
		L45.3811188,2.16605h6.7857018c0.5566978,0,1.0723,0.3173001,1.3809052,0.8486001l7.7177925,13.3251991H57.6083183z"/>
	<path d="M43.9999199,57.8456497h-24c-0.5489006,0-0.994194,0.4454002-0.994194,0.9942017
		c0,0.5487976,0.4452934,0.9940987,0.994194,0.9940987h24c0.5488052,0,0.9940987-0.4453011,0.9940987-0.9940987
		C44.9940186,58.29105,44.5487251,57.8456497,43.9999199,57.8456497z"/>
	<path d="M43.9999199,61.8456497h-24c-0.5489006,0-0.994194,0.4454002-0.994194,0.9942017
		c0,0.5487976,0.4452934,0.9940987,0.994194,0.9940987h24c0.5488052,0,0.9940987-0.4453011,0.9940987-0.9940987
		C44.9940186,62.29105,44.5487251,61.8456497,43.9999199,61.8456497z"/>
</g>
</svg>
